HIERARCHY
ROOT Hips
{
	OFFSET 0.000000 71.427986 0.000000
	CHANNELS 6 Xposition Yposition Zposition Xrotation Yrotation Zrotation
	JOINT Pelvis
	{
		OFFSET 0.000000 0.000000 0.000000
		CHANNELS 3 Xrotation Yrotation Zrotation
		JOINT LeftUpLeg
		{
			OFFSET 6.797100 -2.508499 -1.318700
			CHANNELS 3 Xrotation Yrotation Zrotation
			JOINT LeftLeg
			{
				OFFSET 0.069008 -29.241863 0.690200
				CHANNELS 3 Xrotation Yrotation Zrotation
				JOINT LeftFoot
				{
					OFFSET -0.069008 -29.568123 -0.266800
					CHANNELS 3 Xrotation Yrotation Zrotation
					JOINT LeftToeBase
					{
						OFFSET 3.145500 -8.631000 16.059900
						CHANNELS 3 Xrotation Yrotation Zrotation
						End Site
						{
							OFFSET 0.000000 18.501587 0.000000
						}
					}
				}
			}
			JOINT Left_ShortSleeve
			{
				OFFSET 0.265923 -10.480953 1.153800
				CHANNELS 3 Xrotation Yrotation Zrotation
				End Site
				{
					OFFSET 1.725763 19.823879 0.000000
				}
			}
		}
		JOINT RightUpLeg
		{
			OFFSET -6.797100 -2.508499 -1.318700
			CHANNELS 3 Xrotation Yrotation Zrotation
			JOINT RightLeg
			{
				OFFSET -0.082453 -29.241932 0.688000
				CHANNELS 3 Xrotation Yrotation Zrotation
				JOINT RightFoot
				{
					OFFSET 0.082453 -29.568058 -0.264600
					CHANNELS 3 Xrotation Yrotation Zrotation
					JOINT RightToeBase
					{
						OFFSET -3.115300 -8.682800 16.113400
						CHANNELS 3 Xrotation Yrotation Zrotation
						End Site
						{
							OFFSET 0.000000 18.567114 0.000000
						}
					}
				}
			}
			JOINT Right_ShortSleeve
			{
				OFFSET -0.265923 -10.480953 1.153800
				CHANNELS 3 Xrotation Yrotation Zrotation
				End Site
				{
					OFFSET -1.725766 19.823910 0.000000
				}
			}
		}
	}
	JOINT Spine
	{
		OFFSET 0.000000 13.368103 0.470500
		CHANNELS 3 Xrotation Yrotation Zrotation
		JOINT Spine1
		{
			OFFSET 0.147000 13.837402 0.538800
			CHANNELS 3 Xrotation Yrotation Zrotation
			JOINT Spine2
			{
				OFFSET 0.168000 16.242897 -1.435500
				CHANNELS 3 Xrotation Yrotation Zrotation
				JOINT Neck
				{
					OFFSET 0.217200 18.631500 -1.679100
					CHANNELS 3 Xrotation Yrotation Zrotation
					JOINT Head
					{
						OFFSET 0.000000 6.599396 1.385900
						CHANNELS 3 Xrotation Yrotation Zrotation
						JOINT Hat
						{
							OFFSET -0.532200 27.220596 -10.096100
							CHANNELS 3 Xrotation Yrotation Zrotation
							End Site
							{
								OFFSET 0.000000 22.029861 0.000000
							}
						}
						JOINT HairD
						{
							OFFSET -10.777400 17.437393 -1.325900
							CHANNELS 3 Xrotation Yrotation Zrotation
							JOINT HairD1
							{
								OFFSET -3.290299 -11.051193 1.062200
								CHANNELS 3 Xrotation Yrotation Zrotation
								End Site
								{
									OFFSET 0.000000 11.579437 0.000000
								}
							}
						}
						JOINT HairB
						{
							OFFSET -10.777400 17.437393 1.467900
							CHANNELS 3 Xrotation Yrotation Zrotation
							JOINT HairB1
							{
								OFFSET -1.561200 -12.956299 3.590200
								CHANNELS 3 Xrotation Yrotation Zrotation
								End Site
								{
									OFFSET 0.000000 13.534866 0.000000
								}
							}
						}
						JOINT HairA
						{
							OFFSET 9.713100 17.437393 1.467900
							CHANNELS 3 Xrotation Yrotation Zrotation
							JOINT HairA1
							{
								OFFSET 1.561200 -12.956299 3.590200
								CHANNELS 3 Xrotation Yrotation Zrotation
								End Site
								{
									OFFSET 0.000000 13.534866 0.000000
								}
							}
						}
						JOINT HairC
						{
							OFFSET 9.713100 17.437393 -1.325900
							CHANNELS 3 Xrotation Yrotation Zrotation
							JOINT HairC1
							{
								OFFSET 3.290300 -11.051193 1.062200
								CHANNELS 3 Xrotation Yrotation Zrotation
								End Site
								{
									OFFSET 0.000000 11.579437 0.000000
								}
							}
						}
					}
				}
				JOINT LeftShoulder
				{
					OFFSET 5.101800 15.108002 -2.763700
					CHANNELS 3 Xrotation Yrotation Zrotation
					JOINT LeftArm
					{
						OFFSET 9.825497 2.506317 -1.597400
						CHANNELS 3 Xrotation Yrotation Zrotation
						JOINT LeftForeArm
						{
							OFFSET 21.966244 0.000000 0.000000
							CHANNELS 3 Xrotation Yrotation Zrotation
							JOINT LeftHand
							{
								OFFSET 33.879036 0.000000 0.000000
								CHANNELS 3 Xrotation Yrotation Zrotation
								JOINT LeftHandThumb1
								{
									OFFSET 6.715286 -2.359680 3.363841
									CHANNELS 3 Xrotation Yrotation Zrotation
									JOINT LeftHandThumb2
									{
										OFFSET 2.507072 -1.447464 1.447461
										CHANNELS 3 Xrotation Yrotation Zrotation
										JOINT LeftHandThumb3
										{
											OFFSET 2.898338 -1.673355 1.673357
											CHANNELS 3 Xrotation Yrotation Zrotation
											End Site
											{
												OFFSET -0.295959 3.727692 -0.131651
											}
										}
									}
								}
								JOINT LeftHandIndex1
								{
									OFFSET 14.190811 -0.254547 3.840278
									CHANNELS 3 Xrotation Yrotation Zrotation
									JOINT LeftHandIndex2
									{
										OFFSET 3.551727 0.000000 -0.000000
										CHANNELS 3 Xrotation Yrotation Zrotation
										JOINT LeftHandIndex3
										{
											OFFSET 2.894196 0.000000 0.000000
											CHANNELS 3 Xrotation Yrotation Zrotation
											End Site
											{
												OFFSET -1.000603 2.690872 0.366626
											}
										}
									}
								}
								JOINT LeftHandMiddle1
								{
									OFFSET 13.776489 0.000000 0.000000
									CHANNELS 3 Xrotation Yrotation Zrotation
									JOINT LeftHandMiddle2
									{
										OFFSET 3.438232 0.000000 0.000000
										CHANNELS 3 Xrotation Yrotation Zrotation
										JOINT LeftHandMiddle3
										{
											OFFSET 3.691551 0.000000 0.000000
											CHANNELS 3 Xrotation Yrotation Zrotation
											End Site
											{
												OFFSET -1.082298 3.499527 0.457670
											}
										}
									}
								}
								JOINT LeftHandRing1
								{
									OFFSET 13.966164 -0.268127 -3.067488
									CHANNELS 3 Xrotation Yrotation Zrotation
									JOINT LeftHandRing2
									{
										OFFSET 3.162567 0.000000 0.000000
										CHANNELS 3 Xrotation Yrotation Zrotation
										JOINT LeftHandRing3
										{
											OFFSET 3.324348 0.000000 0.000000
											CHANNELS 3 Xrotation Yrotation Zrotation
											End Site
											{
												OFFSET -0.861900 3.184998 0.405154
											}
										}
									}
								}
								JOINT LeftHandPinky1
								{
									OFFSET 13.131393 -0.168503 -5.746925
									CHANNELS 3 Xrotation Yrotation Zrotation
									JOINT LeftHandPinky2
									{
										OFFSET 2.849182 0.000000 0.000000
										CHANNELS 3 Xrotation Yrotation Zrotation
										JOINT LeftHandPinky3
										{
											OFFSET 2.805038 0.000000 0.000000
											CHANNELS 3 Xrotation Yrotation Zrotation
											End Site
											{
												OFFSET -0.882500 2.642609 0.325652
											}
										}
									}
								}
							}
							JOINT Left_Sleeve
							{
								OFFSET 6.592125 -0.646545 0.805568
								CHANNELS 3 Xrotation Yrotation Zrotation
								End Site
								{
									OFFSET -0.000179 20.275787 -0.000000
								}
							}
						}
					}
				}
				JOINT RightShoulder
				{
					OFFSET -5.731700 15.108002 -2.763700
					CHANNELS 3 Xrotation Yrotation Zrotation
					JOINT RightArm
					{
						OFFSET -9.825497 2.506317 -1.597400
						CHANNELS 3 Xrotation Yrotation Zrotation
						JOINT RightForeArm
						{
							OFFSET -21.966242 0.000000 0.000000
							CHANNELS 3 Xrotation Yrotation Zrotation
							JOINT RightHand
							{
								OFFSET -33.879032 0.000000 0.000000
								CHANNELS 3 Xrotation Yrotation Zrotation
								JOINT RightHandThumb1
								{
									OFFSET -6.715286 -2.359680 3.363841
									CHANNELS 3 Xrotation Yrotation Zrotation
									JOINT RightHandThumb2
									{
										OFFSET -2.507072 -1.447464 1.447461
										CHANNELS 3 Xrotation Yrotation Zrotation
										JOINT RightHandThumb3
										{
											OFFSET -2.898338 -1.673355 1.673357
											CHANNELS 3 Xrotation Yrotation Zrotation
											End Site
											{
												OFFSET 0.295959 3.727692 -0.131651
											}
										}
									}
								}
								JOINT RightHandIndex1
								{
									OFFSET -14.190811 -0.254547 3.840278
									CHANNELS 3 Xrotation Yrotation Zrotation
									JOINT RightHandIndex2
									{
										OFFSET -3.551727 0.000000 -0.000000
										CHANNELS 3 Xrotation Yrotation Zrotation
										JOINT RightHandIndex3
										{
											OFFSET -2.894196 0.000000 0.000000
											CHANNELS 3 Xrotation Yrotation Zrotation
											End Site
											{
												OFFSET 1.000603 2.690872 0.366626
											}
										}
									}
								}
								JOINT RightHandMiddle1
								{
									OFFSET -13.776489 0.000000 0.000000
									CHANNELS 3 Xrotation Yrotation Zrotation
									JOINT RightHandMiddle2
									{
										OFFSET -3.438232 0.000000 0.000000
										CHANNELS 3 Xrotation Yrotation Zrotation
										JOINT RightHandMiddle3
										{
											OFFSET -3.691551 0.000000 0.000000
											CHANNELS 3 Xrotation Yrotation Zrotation
											End Site
											{
												OFFSET 1.082298 3.499527 0.457670
											}
										}
									}
								}
								JOINT RightHandRing1
								{
									OFFSET -13.966164 -0.268127 -3.067488
									CHANNELS 3 Xrotation Yrotation Zrotation
									JOINT RightHandRing2
									{
										OFFSET -3.162567 0.000000 0.000000
										CHANNELS 3 Xrotation Yrotation Zrotation
										JOINT RightHandRing3
										{
											OFFSET -3.324348 0.000000 0.000000
											CHANNELS 3 Xrotation Yrotation Zrotation
											End Site
											{
												OFFSET 0.861900 3.184998 0.405154
											}
										}
									}
								}
								JOINT RightHandPinky1
								{
									OFFSET -13.131393 -0.168503 -5.746925
									CHANNELS 3 Xrotation Yrotation Zrotation
									JOINT RightHandPinky2
									{
										OFFSET -2.849182 0.000000 0.000000
										CHANNELS 3 Xrotation Yrotation Zrotation
										JOINT RightHandPinky3
										{
											OFFSET -2.805038 0.000000 0.000000
											CHANNELS 3 Xrotation Yrotation Zrotation
											End Site
											{
												OFFSET 0.882500 2.642609 0.325652
											}
										}
									}
								}
							}
							JOINT Right_Sleeve
							{
								OFFSET -6.592125 -0.646545 0.805568
								CHANNELS 3 Xrotation Yrotation Zrotation
								End Site
								{
									OFFSET 0.000179 20.275787 -0.000000
								}
							}
						}
					}
				}
				JOINT Bind_Right_JacketString
				{
					OFFSET -3.534800 11.969597 7.200700
					CHANNELS 3 Xrotation Yrotation Zrotation
					JOINT Bind_Right_JacketString1
					{
						OFFSET -0.319900 -6.102600 2.794100
						CHANNELS 3 Xrotation Yrotation Zrotation
						End Site
						{
							OFFSET 0.000000 6.719452 0.000000
						}
					}
				}
				JOINT Bind_Left_JacketString
				{
					OFFSET 2.904800 11.969597 7.200700
					CHANNELS 3 Xrotation Yrotation Zrotation
					JOINT Bind_Left_JacketString1
					{
						OFFSET 0.364800 -5.904503 3.186800
						CHANNELS 3 Xrotation Yrotation Zrotation
						End Site
						{
							OFFSET 0.000000 6.719513 0.000000
						}
					}
				}
				JOINT HairE
				{
					OFFSET 5.915200 17.612701 -11.592200
					CHANNELS 3 Xrotation Yrotation Zrotation
					JOINT HairE1
					{
						OFFSET 0.289200 -7.171898 -1.284500
						CHANNELS 3 Xrotation Yrotation Zrotation
						End Site
						{
							OFFSET 0.000000 7.291756 0.000000
						}
					}
				}
				JOINT HairF
				{
					OFFSET -0.864800 17.612701 -11.592200
					CHANNELS 3 Xrotation Yrotation Zrotation
					JOINT HairF1
					{
						OFFSET 0.000000 -14.087097 -2.127501
						CHANNELS 3 Xrotation Yrotation Zrotation
						End Site
						{
							OFFSET 0.000000 14.246841 0.000000
						}
					}
				}
				JOINT HairG
				{
					OFFSET -8.087700 17.612701 -11.592200
					CHANNELS 3 Xrotation Yrotation Zrotation
					JOINT HairG1
					{
						OFFSET -0.293600 -6.081398 -0.910100
						CHANNELS 3 Xrotation Yrotation Zrotation
						End Site
						{
							OFFSET 0.000000 6.156120 0.000000
						}
					}
				}
			}
		}
	}
	JOINT Pouch
	{
		OFFSET 0.000000 4.394501 10.847300
		CHANNELS 3 Xrotation Yrotation Zrotation
		End Site
		{
			OFFSET 0.000000 21.880577 0.000000
		}
	}
	JOINT Bag
	{
		OFFSET -13.229000 4.813004 -0.593300
		CHANNELS 3 Xrotation Yrotation Zrotation
		End Site
		{
			OFFSET 0.000000 21.880577 0.000000
		}
	}
	JOINT OccupyGuyFacialAnim_Joint
	{
		OFFSET 1.000000 -70.206398 -1.655000
		CHANNELS 3 Xrotation Yrotation Zrotation
		End Site
		{
			OFFSET 0.000000 21.880577 0.000000
		}
	}
}
MOTION
Frames: 4
Frame Time: 0.033333
247.058044 69.170456 118.302635 -1.810326 26.957604 -2.948518 0.000000 -0.000000 0.000000 -16.859028 -7.599412 13.392030 26.556708 -24.539256 -0.984435 -12.568380 5.825972 -7.712329 0.000000 -0.000001 -0.000000 -0.000001 -0.000001 -0.000000 -2.722099 21.844789 1.547530 22.315405 46.465814 3.722605 -16.924693 -5.730465 -13.236162 0.000000 0.000000 -0.000000 0.000000 0.000002 -0.000000 13.207743 -1.341132 -0.099147 -2.570790 -1.917310 1.198318 -2.543132 -1.700842 1.371219 6.350730 0.985450 2.169816 -4.563873 -0.141940 6.256664 -0.000001 0.000000 0.000000 -0.000001 0.000000 0.000000 -0.000001 0.000000 0.000000 -0.000001 0.000000 -0.000000 -0.000001 0.000000 -0.000000 -0.000001 0.000000 -0.000000 -0.000001 0.000000 -0.000000 -0.000001 0.000000 0.000000 -0.000001 0.000000 0.000000 2.529997 3.589356 -3.684396 -4.605179 -7.006178 -71.588913 10.675155 -13.518039 -7.965566 -2.131039 -1.929693 15.279975 -4.549840 10.051025 16.328365 3.041005 4.583922 -1.129333 0.000001 0.000001 -0.000003 0.331593 -3.919068 -19.520447 -0.004572 0.169227 -18.559943 -0.000000 0.000002 0.000000 -0.072889 -3.454528 -21.005183 0.410935 0.509468 -31.618199 0.000001 -0.000000 0.000002 -0.863755 -2.414739 -24.431935 -0.022565 0.177384 -35.255159 -0.000000 0.000000 -0.000003 -2.798339 -1.630239 -30.592916 0.030429 0.098953 -32.479954 -0.000000 0.000002 0.000003 -0.000000 0.000001 -0.000000 3.535721 -1.854953 3.743832 7.021811 32.252259 69.133474 20.514931 23.110106 -7.760471 -28.541689 -6.806339 -20.668673 0.310665 -12.263420 -2.433331 7.890537 -14.952959 -0.793969 0.000002 -0.000001 0.000003 0.321468 0.851809 10.989687 0.015153 -0.157457 9.971657 -0.000002 0.000000 0.000000 0.108980 -0.878126 12.008777 0.061723 -0.379028 22.946232 -0.000004 0.000001 -0.000001 0.214548 -2.929995 14.374833 -0.021646 -0.178699 25.696524 0.000002 0.000000 -0.000001 -1.503907 -2.276364 19.783281 0.038161 -0.102867 22.133887 0.000000 0.000000 0.000001 0.000001 -0.000001 0.000001 -0.000001 -0.000002 0.000000 -0.000000 0.000000 0.000000 -0.000001 -0.000002 -0.000000 -0.000001 -0.000002 -0.000000 -0.000001 -0.000002 0.000000 -0.000000 0.000000 -0.000000 -0.000001 -0.000002 -0.000000 -0.000001 -0.000002 -0.000000 -0.000001 -0.000002 0.000000 -0.000000 0.000000 -0.000000 0.000000 -0.000000 0.000000 0.000000 -0.000000 0.000000 0.000000 -0.000000 0.000000 
248.280807 69.350197 118.265556 -1.342282 23.872727 -3.702521 -0.000000 0.000001 0.000000 -16.419440 -6.505366 13.137252 27.027434 -22.359347 -0.817684 -12.522339 5.422604 -6.790895 -0.000000 0.000000 -0.000000 0.000000 0.000000 0.000000 -2.627006 22.398429 0.572903 21.495864 47.950008 3.746368 -16.688355 -6.164589 -12.109928 0.000000 0.000000 -0.000000 0.000000 -0.000002 -0.000000 12.966296 -1.481729 -0.673576 -2.613612 -2.104995 1.620783 -2.571549 -1.848332 1.807644 6.583629 1.341254 2.246926 -4.007705 0.019654 7.181703 -0.000000 0.000000 -0.000000 -0.000000 0.000000 -0.000000 -0.000000 0.000000 -0.000000 -0.000000 0.000000 -0.000000 -0.000001 -0.000001 0.000000 -0.000000 0.000000 -0.000000 -0.000001 -0.000001 0.000000 -0.000000 0.000000 -0.000000 -0.000000 0.000000 -0.000000 2.539856 3.639607 -3.819103 -5.260633 -8.267076 -71.174089 10.921752 -13.086712 -8.342396 -2.186786 -1.565533 15.096572 -4.611888 10.456118 15.686930 3.105200 5.082681 -0.753753 0.000001 -0.000000 -0.000001 0.380814 -4.200875 -20.796522 -0.005882 0.154883 -19.566813 0.000001 -0.000001 -0.000002 -0.100304 -3.734114 -22.569440 0.355978 0.447695 -31.285285 0.000001 -0.000001 -0.000001 -0.894651 -2.923627 -26.207520 -0.019855 0.155544 -34.896082 0.000000 -0.000000 0.000002 -2.752418 -2.317515 -32.217927 0.028010 0.085325 -32.887993 -0.000000 0.000002 0.000003 -0.000000 0.000000 0.000000 3.518540 -1.604313 3.692559 6.707024 30.785145 69.393424 20.040576 23.216544 -7.018940 -27.665565 -6.706280 -20.576744 0.196951 -13.303006 -2.720746 7.475655 -14.476376 -1.001429 0.000005 0.000001 0.000004 0.389047 0.920361 12.497953 0.013496 -0.143270 11.198508 -0.000002 -0.000000 0.000000 0.140539 -0.489246 13.675789 0.054369 -0.331888 22.762654 0.000000 0.000000 -0.000002 0.256776 -2.211668 16.237875 -0.019475 -0.157179 25.507157 0.000005 -0.000001 0.000001 -1.453548 -1.301824 21.507842 0.035260 -0.090134 22.734338 -0.000000 0.000000 0.000002 -0.000001 -0.000000 0.000001 0.000000 0.000000 0.000000 0.000000 0.000002 0.000000 0.000000 0.000000 0.000000 0.000000 0.000000 0.000000 0.000000 0.000000 0.000000 0.000000 0.000002 -0.000000 0.000000 0.000000 0.000000 0.000000 0.000000 0.000000 0.000000 0.000000 0.000000 0.000000 0.000002 -0.000000 -0.000000 0.000001 0.000000 -0.000000 0.000001 0.000000 -0.000000 0.000001 0.000000 
249.489944 69.547424 118.215469 -1.058260 20.518897 -4.314660 -0.000000 -0.000000 -0.000000 -16.096522 -4.534119 13.029993 27.659225 -20.485178 -0.682509 -13.020467 4.934183 -5.870330 -0.000000 0.000000 -0.000000 0.000002 0.000000 0.000001 -2.692690 22.793781 -0.413756 20.816248 49.058151 3.923391 -16.378420 -6.563135 -10.718756 0.000000 0.000001 0.000000 -0.000000 -0.000002 -0.000001 12.866679 -1.553178 -0.944057 -2.654769 -2.078506 1.543080 -2.610347 -1.836874 1.727387 6.807603 1.599198 3.329980 -3.555192 0.424398 7.720600 0.000002 0.000001 -0.000000 0.000002 0.000001 -0.000000 0.000002 0.000001 -0.000001 0.000002 0.000001 -0.000000 0.000002 0.000001 0.000001 0.000002 0.000001 -0.000000 0.000002 0.000001 0.000001 0.000002 0.000001 -0.000000 0.000002 0.000001 -0.000000 2.540794 3.625778 -3.833453 -5.949666 -9.492804 -70.566263 10.827333 -12.841051 -8.668052 -2.101531 -1.202093 14.884020 -4.671882 10.869023 15.046244 3.167675 5.579373 -0.377270 0.000001 -0.000000 -0.000002 0.417416 -4.483989 -22.070795 -0.006326 0.140334 -20.571106 0.000002 -0.000001 -0.000002 -0.142785 -4.010838 -24.134407 0.301622 0.385220 -30.947618 0.000002 -0.000000 0.000001 -0.956315 -3.427313 -27.984214 -0.017180 0.133703 -34.532385 -0.000002 -0.000001 0.000001 -2.745024 -3.003770 -33.841357 0.025645 0.071644 -33.292459 -0.000001 0.000001 -0.000001 -0.000001 -0.000000 0.000000 3.498800 -1.292190 3.620116 6.449273 29.688534 69.790258 19.752383 23.258976 -6.435194 -27.015183 -6.678442 -20.676145 0.076855 -14.340793 -3.019493 7.059781 -13.997188 -1.204118 0.000003 0.000000 0.000001 0.452811 0.992364 14.011296 0.011286 -0.129192 12.429735 -0.000000 0.000000 -0.000003 0.149658 -0.099910 15.348996 0.046970 -0.284525 22.578278 0.000001 -0.000000 -0.000001 0.250502 -1.485018 18.107776 -0.017037 -0.135555 25.317413 0.000001 -0.000001 -0.000001 -1.460317 -0.328602 23.237325 0.032657 -0.077269 23.336704 -0.000005 0.000000 -0.000001 -0.000000 -0.000001 0.000000 -0.000000 0.000000 -0.000000 0.000000 0.000000 0.000000 -0.000000 0.000000 -0.000000 -0.000000 0.000000 -0.000000 -0.000000 0.000000 -0.000000 0.000000 0.000000 -0.000000 -0.000000 0.000000 -0.000000 -0.000000 0.000000 -0.000000 -0.000000 0.000000 -0.000000 0.000000 0.000000 -0.000000 -0.000000 -0.000000 -0.000000 -0.000000 -0.000000 -0.000000 -0.000000 -0.000000 -0.000000 
250.654663 69.709244 118.171432 -0.924377 17.407352 -4.559193 0.000000 -0.000001 0.000000 -15.823832 -2.191518 12.711187 28.158780 -19.096873 -0.585297 -13.515863 4.355488 -5.034879 -0.000000 -0.000000 0.000000 0.000003 -0.000000 -0.000000 -2.747203 22.459911 -1.433868 20.707588 48.651157 4.140951 -16.139092 -6.669027 -9.636810 0.000000 0.000000 -0.000000 -0.000000 0.000001 0.000000 12.847646 -1.751597 -1.772105 -2.563937 -2.168825 1.694494 -2.504297 -1.914836 1.885010 6.817278 2.098639 3.900675 -3.369484 0.869317 8.523618 0.000001 0.000000 -0.000000 0.000001 0.000000 -0.000000 0.000001 0.000000 -0.000001 0.000001 0.000000 -0.000000 0.000001 0.000000 0.000000 0.000001 0.000000 -0.000000 0.000001 0.000000 0.000000 0.000001 0.000000 -0.000000 0.000001 0.000000 -0.000000 2.538431 3.583412 -3.809934 -6.703913 -10.528839 -69.794746 10.696665 -12.758365 -8.829573 -1.940331 -0.831212 14.596282 -4.729028 11.279996 14.418796 3.227740 6.065044 -0.006947 0.000001 0.000001 0.000001 0.440952 -4.762687 -23.320294 -0.006599 0.126172 -21.554218 -0.000000 0.000001 0.000002 -0.198799 -4.278943 -25.668971 0.248967 0.323231 -30.612922 0.000002 0.000001 -0.000003 -1.046294 -3.914751 -29.728374 -0.015998 0.112327 -34.172229 -0.000001 0.000000 -0.000003 -2.775062 -3.674210 -35.433334 0.022801 0.057982 -33.686858 0.000001 0.000000 0.000001 0.000001 0.000000 -0.000000 3.478274 -0.965959 3.491213 6.337931 29.143259 70.218921 19.663852 23.321010 -6.162524 -26.724983 -6.742685 -21.006599 -0.046500 -15.359921 -3.324474 6.650503 -13.523931 -1.398027 -0.000003 -0.000003 -0.000001 0.511613 1.065893 15.501232 0.008480 -0.115349 13.641771 -0.000003 -0.000001 0.000002 0.137005 0.281247 16.996265 0.039656 -0.237930 22.396967 0.000002 0.000000 0.000001 0.194861 -0.763337 19.949890 -0.014470 -0.114296 25.130385 -0.000001 -0.000002 0.000001 -1.522953 0.622859 24.940589 0.030053 -0.064632 23.929629 0.000001 -0.000000 0.000000 0.000001 -0.000000 0.000001 0.000001 -0.000000 -0.000000 0.000001 -0.000000 -0.000000 0.000001 -0.000000 -0.000000 0.000001 -0.000000 -0.000000 0.000001 -0.000000 -0.000000 0.000001 -0.000000 -0.000000 0.000001 -0.000000 -0.000000 0.000001 -0.000000 -0.000000 0.000001 -0.000000 -0.000000 0.000001 -0.000000 -0.000000 0.000000 -0.000001 0.000000 0.000000 -0.000001 0.000000 0.000000 -0.000001 0.000000 
